<svg xmlns="http://www.w3.org/2000/svg" xmlns:xlink="http://www.w3.org/1999/xlink" width="500" zoomAndPan="magnify" viewBox="0 0 375 374.999991" height="500" preserveAspectRatio="xMidYMid meet" version="1.0"><defs><g/></defs><g fill="#05ed1c" fill-opacity="1"><g transform="translate(20.553474, 214.948405)"><g><path d="M 67.050781 0 C 118.972656 0 156.6875 -9.777344 156.6875 -45.167969 C 156.6875 -70.3125 124.328125 -88.703125 78.695312 -90.101562 C 122.695312 -93.359375 152.964844 -110.125 152.964844 -132.476562 C 152.964844 -156.921875 134.570312 -174.617188 67.75 -174.617188 L 16.53125 -174.617188 L 16.53125 -168.796875 C 22.117188 -168.796875 25.609375 -164.835938 25.609375 -157.152344 L 25.609375 -17.460938 C 25.609375 -9.777344 22.117188 -5.820312 16.53125 -5.820312 L 16.53125 0 Z M 70.542969 -89.636719 C 111.753906 -89.636719 141.554688 -71.011719 141.554688 -45.167969 C 141.554688 -10.011719 109.890625 -0.234375 65.886719 -0.234375 L 54.246094 -0.234375 C 45.398438 -0.234375 39.113281 -9.078125 39.113281 -21.1875 L 39.113281 -89.636719 Z M 66.355469 -173.917969 C 123.628906 -173.917969 139.460938 -155.988281 139.460938 -131.078125 C 139.460938 -107.5625 107.097656 -90.335938 62.164062 -90.335938 L 39.113281 -90.335938 L 39.113281 -173.917969 Z M 66.355469 -173.917969 "/></g></g></g><g fill="#000000" fill-opacity="1"><g transform="translate(155.940513, 285.420596)"><g><path d="M 192.765625 -158.644531 L 192.328125 -162.992188 L 163.207031 -162.992188 L 107.355469 -26.296875 L 44.550781 -162.992188 L 11.953125 -162.992188 L 11.953125 -158.644531 C 16.515625 -158.644531 19.777344 -156.6875 23.253906 -152.125 C 21.730469 -106.488281 20.429688 -60.632812 18.90625 -14.996094 C 18.691406 -7.824219 15.429688 -4.128906 10.214844 -4.128906 L 10.214844 0.21875 L 34.769531 0.21875 L 34.769531 -4.128906 C 29.773438 -4.128906 26.730469 -6.953125 26.296875 -13.257812 L 28.46875 -141.695312 C 51.289062 -94.316406 74.105469 -46.941406 96.707031 0.433594 L 102.140625 0.433594 L 163.644531 -145.605469 C 164.730469 -102.140625 166.035156 -58.460938 167.121094 -14.996094 C 167.335938 -7.824219 164.296875 -4.128906 159.078125 -4.128906 L 159.078125 0.21875 L 197.761719 0.21875 L 197.761719 -4.128906 C 192.546875 -4.128906 189.285156 -7.824219 189.070312 -14.996094 L 184.722656 -149.082031 C 184.941406 -155.601562 187.765625 -158.644531 192.765625 -158.644531 Z M 192.765625 -158.644531 "/></g></g></g><g fill="#000000" fill-opacity="1"><g transform="translate(68.226994, 330.551863)"><g><path d="M 7.105469 0 C 12.609375 0 16.605469 -1.035156 16.605469 -4.785156 C 16.605469 -7.453125 13.175781 -9.402344 8.339844 -9.546875 C 13.003906 -9.894531 16.210938 -11.671875 16.210938 -14.039062 C 16.210938 -16.628906 14.261719 -18.503906 7.179688 -18.503906 L 1.75 -18.503906 L 1.75 -17.886719 C 2.34375 -17.886719 2.714844 -17.46875 2.714844 -16.65625 L 2.714844 -1.851562 C 2.714844 -1.035156 2.34375 -0.617188 1.75 -0.617188 L 1.75 0 Z M 7.476562 -9.5 C 11.84375 -9.5 15 -7.527344 15 -4.785156 C 15 -1.0625 11.644531 -0.0234375 6.984375 -0.0234375 L 5.75 -0.0234375 C 4.8125 -0.0234375 4.144531 -0.960938 4.144531 -2.246094 L 4.144531 -9.5 Z M 7.03125 -18.429688 C 13.101562 -18.429688 14.78125 -16.53125 14.78125 -13.890625 C 14.78125 -11.398438 11.351562 -9.574219 6.585938 -9.574219 L 4.144531 -9.574219 L 4.144531 -18.429688 Z M 7.03125 -18.429688 "/></g></g><g transform="translate(85.819326, 330.551863)"><g><path d="M 5.109375 0 L 5.109375 -0.492188 C 4.515625 -0.492188 4.144531 -0.914062 4.144531 -1.726562 L 4.144531 -9.007812 L 9.671875 -9.007812 C 10.015625 -8.214844 11.449219 -5.429688 13.324219 -1.972656 C 14.3125 -0.148438 14.65625 0 17.914062 0 L 17.914062 -0.296875 C 16.085938 -0.296875 15.863281 -0.417969 15.027344 -1.972656 C 13.125 -5.453125 11.644531 -8.167969 11.128906 -9.105469 C 13.769531 -9.449219 15.570312 -10.855469 15.570312 -13.324219 C 15.570312 -16.332031 13.101562 -18.503906 9.722656 -18.503906 L 1.726562 -18.503906 L 1.75 -18.011719 C 2.34375 -18.011719 2.714844 -17.59375 2.714844 -16.777344 L 2.714844 -1.726562 C 2.714844 -0.914062 2.34375 -0.492188 1.75 -0.492188 L 1.75 0 Z M 4.121094 -9.375 L 4.121094 -18.210938 L 9.277344 -18.210938 C 11.992188 -18.210938 13.964844 -16.285156 13.964844 -13.621094 C 13.964844 -10.78125 12.1875 -9.375 9.722656 -9.375 Z M 4.121094 -9.375 "/></g></g><g transform="translate(103.979154, 330.551863)"><g><path d="M 1.851562 -16.777344 L 1.851562 -5.871094 C 1.851562 -2.320312 4.167969 0.246094 7.378906 0.246094 C 10.363281 0.246094 13.398438 -1.578125 14.582031 -4.121094 L 14.582031 0 L 15.296875 0 L 16.011719 -0.199219 C 16.011719 -0.269531 16.925781 -0.46875 16.976562 -0.46875 L 16.976562 -0.960938 C 16.875 -0.9375 16.777344 -0.914062 16.703125 -0.914062 C 16.285156 -0.914062 16.011719 -1.234375 16.011719 -1.925781 L 16.011719 -18.503906 L 13.621094 -18.503906 L 13.621094 -18.011719 C 14.210938 -18.011719 14.582031 -17.59375 14.582031 -16.777344 L 14.582031 -4.785156 C 13.472656 -2.417969 10.707031 -0.691406 7.96875 -0.691406 C 5.253906 -0.691406 3.28125 -2.863281 3.28125 -5.871094 L 3.28125 -18.503906 L 0.886719 -18.503906 L 0.886719 -18.011719 C 1.480469 -18.011719 1.851562 -17.59375 1.851562 -16.777344 Z M 1.851562 -16.777344 "/></g></g><g transform="translate(121.694855, 330.551863)"><g><path d="M 2.367188 -17.125 L 2.34375 -1.726562 C 2.34375 -0.914062 1.972656 -0.492188 1.382812 -0.492188 L 1.382812 0 L 3.726562 0 L 3.726562 -0.492188 C 3.132812 -0.492188 2.761719 -0.914062 2.761719 -1.726562 L 2.714844 -16.730469 C 7.328125 -11.152344 11.917969 -5.550781 16.554688 0 L 16.851562 0 L 16.949219 -16.777344 C 16.949219 -17.59375 17.320312 -18.011719 17.914062 -18.011719 L 17.914062 -18.503906 L 15.570312 -18.503906 L 15.570312 -18.011719 C 16.160156 -18.011719 16.53125 -17.59375 16.53125 -16.777344 L 16.554688 -2.292969 L 3.085938 -18.503906 L 0.714844 -18.503906 L 0.691406 -18.011719 C 1.257812 -18.011719 1.777344 -17.714844 2.367188 -17.125 Z M 2.367188 -17.125 "/></g></g><g transform="translate(141.088366, 330.551863)"><g><path d="M 21.292969 -9.253906 C 21.292969 -14.753906 17.074219 -18.753906 11.277344 -18.753906 C 5.601562 -18.753906 1.503906 -14.753906 1.503906 -9.253906 C 1.503906 -3.75 5.503906 0.246094 11.027344 0.246094 C 16.976562 0.246094 21.292969 -3.75 21.292969 -9.253906 Z M 3.085938 -9.253906 C 3.085938 -14.707031 6.515625 -18.652344 11.25 -18.652344 C 16.160156 -18.652344 19.714844 -14.707031 19.714844 -9.253906 C 19.714844 -3.800781 16.085938 0.148438 11.054688 0.148438 C 6.441406 0.148438 3.085938 -3.800781 3.085938 -9.253906 Z M 3.085938 -9.253906 "/></g></g><g transform="translate(163.738803, 330.551863)"><g/></g><g transform="translate(172.670674, 330.551863)"><g><path d="M 19.074219 -1.75 C 19.097656 -0.9375 18.753906 -0.519531 18.160156 -0.519531 L 18.160156 -0.0234375 L 21.515625 -0.0234375 L 21.515625 -0.519531 C 20.921875 -0.519531 20.554688 -0.9375 20.527344 -1.75 L 20.085938 -16.902344 C 20.085938 -17.667969 20.40625 -18.035156 20.996094 -18.035156 L 20.921875 -18.503906 L 18.578125 -18.503906 L 11.644531 -1.777344 L 3.949219 -18.503906 L 1.457031 -18.503906 L 1.457031 -18.011719 C 1.949219 -18.011719 2.320312 -17.789062 2.714844 -17.273438 L 2.269531 -1.726562 C 2.246094 -0.914062 1.875 -0.492188 1.28125 -0.492188 L 1.28125 0 L 3.726562 0 L 3.726562 -0.492188 C 3.183594 -0.492188 2.863281 -0.8125 2.8125 -1.503906 L 3.109375 -16.703125 C 5.722656 -11.128906 8.316406 -5.527344 10.957031 0 L 11.324219 0 L 11.351562 -0.125 L 18.652344 -17.371094 C 18.800781 -12.164062 18.949219 -6.957031 19.074219 -1.75 Z M 19.074219 -1.75 "/></g></g><g transform="translate(194.457532, 330.551863)"><g><path d="M 12.804688 0 L 17.492188 0 L 17.492188 -0.617188 L 17.320312 -0.617188 C 16.730469 -0.617188 15.890625 -1.652344 15.371094 -3.085938 L 15.394531 -3.085938 L 9.84375 -18.0625 C 9.84375 -18.0625 9.597656 -19 9.5 -19 L 9.351562 -19 C 9.425781 -18.554688 9.03125 -18.160156 8.390625 -18.0625 L 8.488281 -17.8125 L 2.664062 -2.863281 C 2.074219 -1.554688 0.960938 -0.617188 -0.0742188 -0.617188 L -0.417969 -0.617188 L -0.417969 0 L 3.875 0 L 3.875 -0.617188 L 3.578125 -0.617188 C 2.664062 -0.617188 2.34375 -1.554688 2.761719 -2.863281 L 4.464844 -7.277344 L 12.335938 -7.277344 L 13.867188 -3.085938 C 14.382812 -1.652344 14.0625 -0.617188 13.101562 -0.617188 L 12.804688 -0.617188 Z M 8.511719 -17.714844 L 12.3125 -7.378906 L 4.515625 -7.378906 Z M 8.511719 -17.714844 "/></g></g><g transform="translate(212.197907, 330.551863)"><g><path d="M 10.90625 -18.652344 C 12.804688 -18.652344 14.261719 -18.332031 15.445312 -17.789062 C 16.507812 -17.296875 17.714844 -16.0625 18.257812 -14.855469 L 18.503906 -14.359375 L 19.046875 -14.359375 L 19.046875 -17.222656 L 18.628906 -17.222656 L 18.503906 -17.023438 C 18.480469 -16.949219 18.382812 -16.925781 18.257812 -16.925781 C 17.9375 -16.925781 17.394531 -17.125 16.828125 -17.445312 C 15.46875 -18.257812 13.644531 -18.753906 10.882812 -18.753906 C 5.429688 -18.753906 1.480469 -14.753906 1.480469 -9.253906 C 1.480469 -3.75 5.304688 0.246094 10.558594 0.246094 C 13.347656 0.246094 15.394531 -0.320312 16.925781 -1.234375 C 17.394531 -1.480469 17.789062 -1.605469 18.085938 -1.605469 C 18.257812 -1.605469 18.40625 -1.554688 18.457031 -1.429688 L 18.578125 -1.210938 L 19.046875 -1.210938 L 19.046875 -4.144531 L 18.503906 -4.144531 L 18.257812 -3.652344 C 16.851562 -0.738281 13.570312 0.148438 10.585938 0.148438 C 6.242188 0.148438 3.085938 -3.800781 3.085938 -9.253906 C 3.085938 -14.707031 6.367188 -18.652344 10.90625 -18.652344 Z M 10.90625 -18.652344 "/></g></g><g transform="translate(232.380976, 330.551863)"><g><path d="M 19.074219 0 L 19.074219 -0.492188 C 18.480469 -0.492188 18.109375 -0.914062 18.109375 -1.726562 L 18.109375 -16.777344 C 18.109375 -17.59375 18.480469 -18.011719 19.074219 -18.011719 L 19.074219 -18.503906 L 15.691406 -18.503906 L 15.691406 -18.011719 C 16.285156 -18.011719 16.65625 -17.59375 16.65625 -16.777344 L 16.65625 -9.546875 L 5.035156 -9.546875 L 5.035156 -16.777344 C 5.035156 -17.59375 5.402344 -18.011719 5.996094 -18.011719 L 5.996094 -18.503906 L 2.640625 -18.503906 L 2.640625 -18.011719 C 3.230469 -18.011719 3.601562 -17.59375 3.601562 -16.777344 L 3.601562 -1.726562 C 3.601562 -0.914062 3.230469 -0.492188 2.640625 -0.492188 L 2.640625 0 L 5.996094 0 L 5.996094 -0.492188 C 5.402344 -0.492188 5.035156 -0.914062 5.035156 -1.726562 L 5.035156 -9.449219 L 16.65625 -9.449219 L 16.65625 -1.726562 C 16.65625 -0.914062 16.285156 -0.492188 15.691406 -0.492188 L 15.691406 0 Z M 19.074219 0 "/></g></g><g transform="translate(252.93415, 330.551863)"><g><path d="M 12.804688 0 L 17.492188 0 L 17.492188 -0.617188 L 17.320312 -0.617188 C 16.730469 -0.617188 15.890625 -1.652344 15.371094 -3.085938 L 15.394531 -3.085938 L 9.84375 -18.0625 C 9.84375 -18.0625 9.597656 -19 9.5 -19 L 9.351562 -19 C 9.425781 -18.554688 9.03125 -18.160156 8.390625 -18.0625 L 8.488281 -17.8125 L 2.664062 -2.863281 C 2.074219 -1.554688 0.960938 -0.617188 -0.0742188 -0.617188 L -0.417969 -0.617188 L -0.417969 0 L 3.875 0 L 3.875 -0.617188 L 3.578125 -0.617188 C 2.664062 -0.617188 2.34375 -1.554688 2.761719 -2.863281 L 4.464844 -7.277344 L 12.335938 -7.277344 L 13.867188 -3.085938 C 14.382812 -1.652344 14.0625 -0.617188 13.101562 -0.617188 L 12.804688 -0.617188 Z M 8.511719 -17.714844 L 12.3125 -7.378906 L 4.515625 -7.378906 Z M 8.511719 -17.714844 "/></g></g><g transform="translate(270.674525, 330.551863)"><g><path d="M 1.75 -18.503906 L 1.75 -18.011719 C 2.34375 -18.011719 2.714844 -17.59375 2.714844 -16.777344 L 2.714844 -1.726562 C 2.714844 -0.914062 2.34375 -0.492188 1.75 -0.492188 L 1.75 0 L 7.007812 0 C 14.679688 0 20.257812 -3.355469 20.257812 -9.253906 C 20.257812 -14.632812 15.988281 -18.503906 8.4375 -18.503906 Z M 4.144531 -18.429688 L 8.140625 -18.429688 C 14.855469 -18.429688 18.679688 -14.582031 18.679688 -9.253906 C 18.679688 -3.40625 13.71875 -0.0742188 6.882812 -0.0742188 C 4.492188 -0.0742188 4.144531 -0.863281 4.144531 -1.972656 Z M 4.144531 -18.429688 "/></g></g><g transform="translate(292.288667, 330.551863)"><g><path d="M 21.292969 -9.253906 C 21.292969 -14.753906 17.074219 -18.753906 11.277344 -18.753906 C 5.601562 -18.753906 1.503906 -14.753906 1.503906 -9.253906 C 1.503906 -3.75 5.503906 0.246094 11.027344 0.246094 C 16.976562 0.246094 21.292969 -3.75 21.292969 -9.253906 Z M 3.085938 -9.253906 C 3.085938 -14.707031 6.515625 -18.652344 11.25 -18.652344 C 16.160156 -18.652344 19.714844 -14.707031 19.714844 -9.253906 C 19.714844 -3.800781 16.085938 0.148438 11.054688 0.148438 C 6.441406 0.148438 3.085938 -3.800781 3.085938 -9.253906 Z M 3.085938 -9.253906 "/></g></g></g></svg>